<svg width="1024" height="1024" viewBox="0 0 1024 1024" fill="none" xmlns="http://www.w3.org/2000/svg">
<g filter="url(#filter0_d_5_2)">
<path d="M903.953 341.222V706.198C903.953 733.263 889.465 758.337 866.018 771.916L642.622 900.996C630.042 908.237 614.108 900.543 612.027 886.149L582.782 685.83C581.147 674.607 585.944 663.29 595.555 657.318C644.608 626.72 675.664 569.965 668.864 506.419C663.527 456.542 634.204 413.094 592.836 388.201C573.996 376.885 552.731 369.464 530.1 366.928C460.943 359.324 399.661 396.169 371.147 452.56C360.286 473.922 354.222 498.094 354.222 523.71C354.222 580.193 383.91 629.527 428.448 657.318C438.042 663.29 442.839 674.698 441.209 685.83L411.971 886.149C409.89 900.543 393.958 908.237 381.378 900.996L157.974 771.916C134.529 758.337 120.047 733.263 120.047 706.198V341.222C120.047 332.895 121.404 324.837 123.939 317.235C129.732 299.946 141.679 284.917 157.974 275.504L467.641 96.7287L473.979 93.0164C497.515 79.4377 526.479 79.4377 550.013 93.0164L866.018 275.504C889.465 289.081 903.953 314.155 903.953 341.222Z" fill="url(#paint0_linear_5_2)"/>
<path fill-rule="evenodd" clip-rule="evenodd" d="M512.366 387.049C587.206 387.049 647.71 447.546 647.71 522.383C647.71 596.9 587.206 657.403 512.366 657.403C437.853 657.403 377.35 596.9 377.35 522.383C377.35 447.546 437.853 387.049 512.366 387.049Z" fill="url(#paint1_linear_5_2)"/>
<g filter="url(#filter1_i_5_2)">
<path d="M574.788 476.206C573.827 490.216 562.05 501.365 547.715 501.365C532.431 501.365 520.336 489.27 520.336 474.289C520.336 462.84 527.336 452.952 537.521 448.817C529.567 446.269 521.283 444.679 512.366 444.679C491.033 444.679 471.611 453.281 457.601 467.608C443.591 481.618 434.99 501.05 434.99 522.383C434.99 543.72 443.591 563.14 457.601 577.153C471.611 591.161 491.033 599.762 512.366 599.762C533.703 599.762 553.134 591.161 567.146 577.153C581.157 563.14 590.073 543.72 590.073 522.383C590.073 505.187 584.343 489.27 574.788 476.206ZM512.051 500.089C521.925 500.089 529.881 508.059 529.881 517.923C529.881 527.792 521.925 535.755 512.051 535.755C502.174 535.755 494.219 527.792 494.219 517.923C494.219 508.059 502.174 500.089 512.051 500.089ZM512.366 433.532C536.896 433.532 559.189 443.409 575.106 459.65C591.344 475.574 601.218 497.859 601.218 522.383C601.218 546.899 591.344 569.195 575.106 585.108C559.189 601.036 536.896 611.236 512.366 611.236C487.852 611.236 465.558 601.036 449.63 585.108C433.391 569.195 423.528 546.899 423.528 522.383C423.528 497.859 433.391 475.574 449.63 459.65C465.558 443.409 487.852 433.532 512.366 433.532Z" fill="#FEFEFE"/>
</g>
<g filter="url(#filter2_i_5_2)">
<path d="M639.176 869.095C636.348 853.562 633.632 838.014 630.899 822.466L622.828 775.804L614.967 729.114C612.36 713.549 609.708 697.988 607.198 682.409L606.736 679.491L609.342 677.77C625.719 666.969 640.318 653.633 652.438 638.382C658.62 630.839 663.829 622.588 668.769 614.23C669.421 613.211 669.913 612.09 670.485 611.021L672.137 607.774L673.79 604.535C674.33 603.448 674.949 602.395 675.379 601.259L678.237 594.563L679.668 591.218C680.096 590.091 680.461 588.932 680.875 587.788C687.465 569.558 691.121 550.313 691.693 530.991C691.803 529.787 691.74 528.577 691.722 527.368L691.659 523.744C691.613 521.327 691.629 518.914 691.532 516.501L690.945 509.277L690.659 505.665C690.595 505.066 690.581 504.461 690.5 503.866L690.231 502.078L689.181 494.934C688.833 492.556 688.23 490.215 687.784 487.856L687.037 484.323C686.799 483.143 686.433 481.993 686.132 480.829L684.258 473.861L681.97 467.014C681.573 465.877 681.24 464.725 680.811 463.6L679.461 460.253C678.538 458.03 677.728 455.762 676.744 453.571L673.695 447.028C669.404 438.433 664.687 430.012 659.048 422.216L656.999 419.251C656.301 418.275 655.536 417.349 654.806 416.398L650.374 410.716L645.626 405.296C644.815 404.404 644.068 403.46 643.226 402.607L640.699 400.037C634.123 393.035 626.769 386.815 619.16 380.988L613.314 376.775C612.36 376.045 611.328 375.435 610.328 374.787L607.293 372.856C603.307 370.205 599.096 367.873 594.871 365.617C586.372 361.192 577.54 357.407 568.469 354.383C550.304 348.334 531.163 345.35 511.962 345.403C492.781 345.475 473.641 348.546 455.445 354.535L452.024 355.626C450.872 355.962 449.788 356.485 448.666 356.903L441.99 359.556C439.73 360.364 437.626 361.521 435.45 362.521L428.96 365.606L422.703 369.136C420.629 370.334 418.48 371.41 416.519 372.793C412.552 375.475 408.409 377.915 404.684 380.946L398.958 385.293C397.118 386.827 395.343 388.442 393.528 390.01L390.82 392.376L389.466 393.56L388.197 394.832L383.119 399.932C382.279 400.788 381.409 401.616 380.595 402.493L378.235 405.211L373.504 410.637C372.685 411.518 371.999 412.505 371.267 413.458L369.095 416.33C367.666 418.259 366.147 420.127 364.79 422.105L360.851 428.144C359.535 430.155 358.174 432.139 357.063 434.279C354.759 438.502 352.26 442.626 350.204 446.988C348.132 451.33 346.152 455.711 344.44 460.206C343.525 462.429 342.769 464.712 341.933 466.964C341.201 469.254 340.387 471.52 339.738 473.836C334.194 492.249 331.761 511.64 332.405 530.97C332.766 550.313 336.592 569.535 343.157 587.77C343.571 588.907 343.913 590.076 344.39 591.188L345.798 594.54C346.745 596.773 347.655 599.025 348.632 601.243L351.869 607.764L353.488 611.027L355.311 614.178L358.952 620.492L362.968 626.578L364.969 629.628C365.64 630.645 366.415 631.585 367.132 632.568L371.52 638.406C383.659 653.648 398.344 666.888 414.666 677.753L417.282 679.497L416.813 682.413C414.297 697.991 411.659 713.553 409.039 729.116L401.176 775.808L393.11 822.466C390.366 838.014 387.646 853.564 384.81 869.095C386.532 853.401 388.37 837.721 390.185 822.042L395.79 775.021L401.6 728.029C403.542 712.368 405.461 696.701 407.504 681.052L409.648 685.712C392.131 674.902 376.125 661.452 362.667 645.685L357.787 639.634C356.988 638.615 356.128 637.638 355.379 636.582L353.132 633.408C351.635 631.287 350.137 629.168 348.677 627.024L344.616 620.378L342.59 617.05L340.766 613.605L337.134 606.709C336.026 604.357 334.989 601.973 333.916 599.605L332.32 596.043C331.782 594.86 331.381 593.62 330.904 592.41C323.376 573.023 318.748 552.409 317.836 531.549C316.623 510.729 318.99 489.652 324.65 469.465C327.441 459.358 331.181 449.517 335.621 440.026C337.797 435.263 340.437 430.736 342.902 426.114C344.088 423.775 345.536 421.589 346.941 419.375L351.165 412.738C362.922 395.349 377.674 380.003 394.395 367.274C398.466 363.935 402.97 361.2 407.313 358.237C409.46 356.711 411.801 355.499 414.067 354.168L420.914 350.248L428.009 346.798C430.387 345.677 432.709 344.43 435.18 343.521L442.508 340.587C443.738 340.125 444.93 339.557 446.193 339.179L449.945 337.966C469.91 331.339 490.924 327.905 511.949 327.804C532.941 327.796 554.029 331.126 573.996 337.833C578.985 339.525 583.909 341.385 588.755 343.468C593.569 345.568 598.317 347.847 602.957 350.314C607.58 352.82 612.154 355.413 616.523 358.347L619.827 360.489C620.94 361.209 622.051 361.892 623.099 362.696L629.453 367.354C662.923 392.789 687.816 429.136 699.286 469.475C704.814 489.689 707.403 510.729 706.211 531.563C705.084 552.405 700.635 573.03 693.073 592.414C692.613 593.63 692.185 594.86 691.676 596.057L690.072 599.609L686.832 606.709C686.338 607.908 685.654 609.024 685.051 610.172L683.194 613.599L681.335 617.022C680.699 618.153 680.142 619.333 679.413 620.407C673.98 629.244 668.085 637.83 661.256 645.632C647.817 661.403 631.899 674.949 614.33 685.695L616.474 681.056C618.508 696.705 620.431 712.372 622.368 728.033L628.183 775.025L633.807 822.044C635.616 837.722 637.46 853.401 639.176 869.095Z" fill="#FEFEFE"/>
</g>
<g filter="url(#filter3_i_5_2)">
<path d="M149.382 533.841C147.441 481.283 146.289 428.726 145.086 376.167L144.708 356.46L144.53 346.604L144.442 341.676C144.4 339.956 144.446 338.065 144.592 336.271C145.71 321.728 153.346 307.737 165.228 298.91C166.69 297.795 168.252 296.773 169.812 295.818L174.033 293.279L182.492 288.216L199.432 278.141L233.312 257.99L267.191 237.839L301.131 217.8L369.106 177.874L437.199 138.155L471.301 118.39L479.825 113.439L484.075 110.943C485.717 109.993 487.509 109.063 489.267 108.268C496.39 105.069 504.174 103.389 511.989 103.374C519.804 103.374 527.589 105.061 534.712 108.258C536.481 109.054 538.258 109.976 539.891 110.922L544.154 113.389L552.682 118.33L586.786 138.091L654.886 177.817L722.86 217.752L756.805 237.79L790.689 257.95L824.575 278.109L841.506 288.186L849.974 293.243L854.184 295.784C855.725 296.771 857.329 297.757 858.774 298.895C864.698 303.312 869.561 309.04 873.134 315.43C876.614 321.865 878.868 328.988 879.393 336.269C879.488 337.174 879.551 338.084 879.551 338.996C879.551 339.884 879.6 340.865 879.569 341.676L879.488 346.604L879.314 356.46L878.934 376.167C877.726 428.726 876.565 481.283 874.611 533.841C872.659 481.283 871.499 428.726 870.291 376.167L869.909 356.46L869.734 346.604L869.639 341.676C869.639 340.844 869.576 340.184 869.544 339.432C869.512 338.7 869.433 337.974 869.338 337.246C868.702 331.428 866.685 325.811 863.73 320.81C860.712 315.848 856.725 311.484 851.976 308.223C850.816 307.364 849.577 306.678 848.321 305.925L844.016 303.538L835.407 298.738L818.203 289.107L783.811 269.84L749.418 250.574L715.092 231.188L646.529 192.272L578.095 153.146L543.924 133.484L535.385 128.569L531.116 126.113C529.9 125.419 528.759 124.832 527.53 124.279C522.659 122.105 517.317 120.978 511.99 120.972C506.664 120.97 501.322 122.105 496.449 124.276C495.215 124.836 494.086 125.416 492.88 126.104L488.629 128.588L480.095 133.514L445.922 153.165L377.465 192.282L308.89 231.191L274.556 250.569L240.16 269.835L205.766 289.104L188.568 298.736L179.957 303.529L175.643 305.916C174.377 306.634 173.155 307.366 171.975 308.2C162.47 314.721 155.931 325.588 154.608 337.24C154.437 338.717 154.344 340.11 154.325 341.676L154.237 346.604L154.059 356.46L153.682 376.167C152.479 428.726 151.326 481.283 149.382 533.841Z" fill="#FEFEFE"/>
</g>
</g>
<defs>
<filter id="filter0_d_5_2" x="116.047" y="82.8324" width="791.906" height="828.928" filterUnits="userSpaceOnUse" color-interpolation-filters="sRGB">
<feFlood flood-opacity="0" result="BackgroundImageFix"/>
<feColorMatrix in="SourceAlpha" type="matrix" values="0 0 0 0 0 0 0 0 0 0 0 0 0 0 0 0 0 0 127 0" result="hardAlpha"/>
<feOffset dy="4"/>
<feGaussianBlur stdDeviation="2"/>
<feComposite in2="hardAlpha" operator="out"/>
<feColorMatrix type="matrix" values="0 0 0 0 0 0 0 0 0 0 0 0 0 0 0 0 0 0 0.25 0"/>
<feBlend mode="normal" in2="BackgroundImageFix" result="effect1_dropShadow_5_2"/>
<feBlend mode="normal" in="SourceGraphic" in2="effect1_dropShadow_5_2" result="shape"/>
</filter>
<filter id="filter1_i_5_2" x="423.528" y="433.532" width="177.691" height="181.704" filterUnits="userSpaceOnUse" color-interpolation-filters="sRGB">
<feFlood flood-opacity="0" result="BackgroundImageFix"/>
<feBlend mode="normal" in="SourceGraphic" in2="BackgroundImageFix" result="shape"/>
<feColorMatrix in="SourceAlpha" type="matrix" values="0 0 0 0 0 0 0 0 0 0 0 0 0 0 0 0 0 0 127 0" result="hardAlpha"/>
<feOffset dy="5"/>
<feGaussianBlur stdDeviation="2"/>
<feComposite in2="hardAlpha" operator="arithmetic" k2="-1" k3="1"/>
<feColorMatrix type="matrix" values="0 0 0 0 0 0 0 0 0 0 0 0 0 0 0 0 0 0 0.5 0"/>
<feBlend mode="normal" in2="shape" result="effect1_innerShadow_5_2"/>
</filter>
<filter id="filter2_i_5_2" x="317.526" y="327.804" width="388.97" height="545.291" filterUnits="userSpaceOnUse" color-interpolation-filters="sRGB">
<feFlood flood-opacity="0" result="BackgroundImageFix"/>
<feBlend mode="normal" in="SourceGraphic" in2="BackgroundImageFix" result="shape"/>
<feColorMatrix in="SourceAlpha" type="matrix" values="0 0 0 0 0 0 0 0 0 0 0 0 0 0 0 0 0 0 127 0" result="hardAlpha"/>
<feOffset dy="5"/>
<feGaussianBlur stdDeviation="2"/>
<feComposite in2="hardAlpha" operator="arithmetic" k2="-1" k3="1"/>
<feColorMatrix type="matrix" values="0 0 0 0 0 0 0 0 0 0 0 0 0 0 0 0 0 0 0.5 0"/>
<feBlend mode="normal" in2="shape" result="effect1_innerShadow_5_2"/>
</filter>
<filter id="filter3_i_5_2" x="144.427" y="103.374" width="735.152" height="434.467" filterUnits="userSpaceOnUse" color-interpolation-filters="sRGB">
<feFlood flood-opacity="0" result="BackgroundImageFix"/>
<feBlend mode="normal" in="SourceGraphic" in2="BackgroundImageFix" result="shape"/>
<feColorMatrix in="SourceAlpha" type="matrix" values="0 0 0 0 0 0 0 0 0 0 0 0 0 0 0 0 0 0 127 0" result="hardAlpha"/>
<feOffset dy="5"/>
<feGaussianBlur stdDeviation="2"/>
<feComposite in2="hardAlpha" operator="arithmetic" k2="-1" k3="1"/>
<feColorMatrix type="matrix" values="0 0 0 0 0 0 0 0 0 0 0 0 0 0 0 0 0 0 0.5 0"/>
<feBlend mode="normal" in2="shape" result="effect1_innerShadow_5_2"/>
</filter>
<linearGradient id="paint0_linear_5_2" x1="512" y1="82.8324" x2="512" y2="903.76" gradientUnits="userSpaceOnUse">
<stop stop-color="#054B7F"/>
<stop offset="0.565" stop-color="#103652"/>
<stop offset="1" stop-color="#19252F"/>
</linearGradient>
<linearGradient id="paint1_linear_5_2" x1="512.53" y1="387.049" x2="512.53" y2="657.403" gradientUnits="userSpaceOnUse">
<stop stop-color="#054B7F"/>
<stop offset="0.565" stop-color="#103652"/>
<stop offset="1" stop-color="#19252F"/>
</linearGradient>
</defs>
</svg>
