<svg width="1098" height="1098" viewBox="0 0 1098 1098" fill="none" xmlns="http://www.w3.org/2000/svg">
<g filter="url(#filter0_d_5_24)">
<path d="M839.689 261.762V532.626C839.689 552.712 828.937 571.321 811.536 581.398L645.745 677.194C636.408 682.568 624.583 676.858 623.038 666.176L601.335 517.51C600.121 509.181 603.681 500.782 610.814 496.35C647.219 473.642 670.266 431.522 665.22 384.362C661.259 347.346 639.497 315.101 608.797 296.627C594.814 288.229 579.033 282.722 562.238 280.839C510.913 275.196 465.433 302.54 444.271 344.391C436.211 360.244 431.711 378.183 431.711 397.194C431.711 439.112 453.744 475.725 486.797 496.35C493.917 500.782 497.477 509.248 496.268 517.51L474.569 666.176C473.024 676.858 461.201 682.568 451.864 677.194L286.067 581.398C268.667 571.321 257.919 552.712 257.919 532.626V261.762C257.919 255.582 258.927 249.602 260.808 243.96C265.107 231.129 273.974 219.976 286.067 212.99L515.884 80.313L520.588 77.558C538.054 67.4807 559.55 67.4807 577.015 77.558L811.536 212.99C828.937 223.066 839.689 241.675 839.689 261.762Z" fill="url(#paint0_linear_5_24)"/>
<path fill-rule="evenodd" clip-rule="evenodd" d="M549.076 295.772C604.618 295.772 649.521 340.67 649.521 396.209C649.521 451.511 604.618 496.413 549.076 496.413C493.777 496.413 448.875 451.511 448.875 396.209C448.875 340.67 493.777 295.772 549.076 295.772Z" fill="url(#paint1_linear_5_24)"/>
<g filter="url(#filter1_i_5_24)">
<path d="M595.402 361.939C594.689 372.337 585.949 380.611 575.31 380.611C563.967 380.611 554.991 371.635 554.991 360.516C554.991 352.02 560.186 344.682 567.745 341.612C561.842 339.722 555.693 338.542 549.076 338.542C533.244 338.542 518.83 344.926 508.433 355.558C498.035 365.955 491.652 380.377 491.652 396.209C491.652 412.044 498.035 426.457 508.433 436.856C518.83 447.252 533.244 453.635 549.076 453.635C564.911 453.635 579.332 447.252 589.731 436.856C600.129 426.457 606.746 412.044 606.746 396.209C606.746 383.447 602.493 371.635 595.402 361.939ZM548.842 379.664C556.17 379.664 562.075 385.579 562.075 392.899C562.075 400.223 556.17 406.133 548.842 406.133C541.512 406.133 535.608 400.223 535.608 392.899C535.608 385.579 541.512 379.664 548.842 379.664ZM549.076 330.269C567.281 330.269 583.826 337.599 595.638 349.652C607.689 361.47 615.017 378.009 615.017 396.209C615.017 414.403 607.689 430.95 595.638 442.76C583.826 454.581 567.281 462.151 549.076 462.151C530.883 462.151 514.338 454.581 502.517 442.76C490.465 430.95 483.145 414.403 483.145 396.209C483.145 378.009 490.465 361.47 502.517 349.652C514.338 337.599 530.883 330.269 549.076 330.269Z" fill="#FEFEFE"/>
</g>
<g filter="url(#filter2_i_5_24)">
<path d="M643.187 653.518C641.088 641.991 639.072 630.452 637.044 618.913L631.055 584.283L625.22 549.633C623.286 538.081 621.318 526.533 619.455 514.971L619.112 512.805L621.046 511.528C633.2 503.513 644.035 493.615 653.03 482.297C657.617 476.699 661.483 470.575 665.149 464.373C665.633 463.617 665.998 462.785 666.423 461.991L667.649 459.582L668.875 457.177C669.277 456.371 669.736 455.589 670.055 454.747L672.176 449.777L673.238 447.295C673.555 446.458 673.827 445.598 674.134 444.749C679.025 431.22 681.738 416.937 682.162 402.598C682.244 401.704 682.197 400.806 682.184 399.909L682.137 397.219C682.103 395.426 682.115 393.634 682.043 391.844L681.607 386.483L681.395 383.802C681.348 383.358 681.337 382.908 681.277 382.467L681.077 381.14L680.298 375.838C680.04 374.073 679.592 372.336 679.261 370.585L678.707 367.963C678.53 367.087 678.259 366.234 678.035 365.37L676.644 360.199L674.946 355.118C674.652 354.274 674.404 353.419 674.086 352.584L673.084 350.1C672.4 348.45 671.798 346.767 671.068 345.141L668.805 340.285C665.621 333.906 662.12 327.657 657.935 321.871L656.414 319.67C655.896 318.946 655.329 318.259 654.787 317.553L651.497 313.336L647.974 309.314C647.372 308.652 646.818 307.951 646.193 307.319L644.318 305.411C639.437 300.214 633.979 295.598 628.333 291.274L623.994 288.147C623.286 287.606 622.52 287.153 621.778 286.672L619.526 285.239C616.567 283.271 613.442 281.541 610.306 279.867C603.999 276.582 597.444 273.774 590.712 271.529C577.231 267.04 563.026 264.826 548.776 264.865C534.541 264.918 520.337 267.197 506.832 271.642L504.293 272.452C503.439 272.701 502.635 273.089 501.802 273.4L496.847 275.368C495.17 275.968 493.609 276.827 491.994 277.569L487.177 279.858L482.533 282.478C480.994 283.367 479.4 284.166 477.944 285.192C475 287.183 471.925 288.993 469.161 291.242L464.911 294.469C463.545 295.608 462.228 296.806 460.881 297.97L458.872 299.725L457.867 300.604L456.925 301.548L453.156 305.333C452.533 305.968 451.888 306.582 451.283 307.234L449.532 309.251L446.021 313.278C445.413 313.931 444.904 314.664 444.36 315.371L442.748 317.503C441.688 318.934 440.561 320.32 439.553 321.789L436.631 326.27C435.654 327.763 434.643 329.235 433.819 330.823C432.109 333.958 430.254 337.018 428.729 340.255C427.191 343.477 425.722 346.729 424.451 350.065C423.772 351.715 423.211 353.409 422.591 355.08C422.047 356.78 421.443 358.462 420.962 360.18C416.847 373.846 415.041 388.236 415.519 402.582C415.787 416.937 418.626 431.203 423.499 444.735C423.806 445.58 424.06 446.447 424.414 447.272L425.459 449.76C426.162 451.417 426.837 453.088 427.562 454.734L429.965 459.574L431.166 461.995L432.519 464.334L435.221 469.02L438.202 473.537L439.687 475.8C440.185 476.555 440.759 477.252 441.292 477.982L444.548 482.315C453.557 493.626 464.455 503.453 476.569 511.516L478.51 512.81L478.162 514.974C476.295 526.535 474.337 538.085 472.393 549.634L466.557 584.287L460.571 618.913C458.535 630.452 456.516 641.992 454.411 653.518C455.689 641.872 457.054 630.235 458.4 618.599L462.56 583.703L466.872 548.828C468.313 537.205 469.737 525.578 471.253 513.964L472.845 517.422C459.844 509.4 447.966 499.418 437.978 487.717L434.357 483.226C433.763 482.47 433.126 481.744 432.569 480.961L430.902 478.605C429.791 477.032 428.679 475.459 427.595 473.868L424.581 468.935L423.078 466.465L421.725 463.909L419.029 458.791C418.207 457.046 417.437 455.276 416.641 453.519L415.457 450.875C415.057 449.997 414.759 449.077 414.406 448.179C408.819 433.791 405.384 418.492 404.707 403.011C403.807 387.56 405.564 371.918 409.764 356.937C411.835 349.435 414.611 342.132 417.906 335.089C419.521 331.553 421.48 328.194 423.309 324.763C424.19 323.028 425.264 321.405 426.307 319.763L429.442 314.837C438.167 301.932 449.115 290.543 461.525 281.096C464.546 278.618 467.889 276.588 471.112 274.39C472.705 273.257 474.442 272.358 476.124 271.37L481.205 268.461L486.471 265.9C488.236 265.068 489.959 264.143 491.793 263.468L497.231 261.291C498.144 260.948 499.029 260.526 499.966 260.246L502.751 259.345C517.568 254.427 533.163 251.879 548.766 251.804C564.346 251.798 579.996 254.269 594.814 259.247C598.517 260.503 602.172 261.882 605.767 263.429C609.34 264.987 612.864 266.678 616.307 268.509C619.739 270.369 623.133 272.294 626.375 274.471L628.828 276.061C629.653 276.595 630.478 277.102 631.255 277.699L635.971 281.156C660.811 300.032 679.285 327.006 687.797 356.944C691.9 371.946 693.821 387.56 692.936 403.022C692.1 418.489 688.799 433.796 683.186 448.182C682.845 449.085 682.527 449.997 682.15 450.886L680.959 453.522L678.555 458.791C678.188 459.68 677.681 460.509 677.233 461.361L675.855 463.905L674.475 466.445C674.003 467.284 673.59 468.16 673.048 468.957C669.016 475.515 664.642 481.887 659.574 487.678C649.6 499.382 637.787 509.435 624.748 517.41L626.339 513.967C627.849 525.581 629.276 537.208 630.713 548.831L635.029 583.706L639.203 618.6C640.545 630.236 641.914 641.872 643.187 653.518Z" fill="#FEFEFE"/>
</g>
<g filter="url(#filter3_i_5_24)">
<path d="M279.69 404.712C278.25 365.707 277.395 326.702 276.502 287.696L276.222 273.071L276.09 265.756L276.024 262.099C275.993 260.822 276.027 259.419 276.135 258.087C276.965 247.294 282.632 236.912 291.45 230.36C292.536 229.533 293.695 228.775 294.852 228.065L297.985 226.181L304.262 222.424L316.835 214.946L341.978 199.992L367.122 185.037L392.31 170.165L442.756 140.534L493.292 111.057L518.6 96.3891L524.926 92.7148L528.08 90.8617C529.299 90.157 530.629 89.4666 531.933 88.8771C537.22 86.503 542.996 85.2559 548.796 85.2449C554.596 85.2449 560.374 86.4965 565.66 88.8696C566.973 89.4601 568.291 90.1446 569.504 90.8463L572.668 92.6771L578.997 96.3439L604.306 111.01L654.847 140.492L705.293 170.129L730.485 185.001L755.631 199.962L780.779 214.923L793.345 222.401L799.629 226.154L802.754 228.04C803.897 228.773 805.088 229.505 806.161 230.349C810.557 233.627 814.166 237.878 816.818 242.621C819.4 247.396 821.073 252.683 821.463 258.086C821.533 258.758 821.58 259.433 821.58 260.11C821.58 260.769 821.616 261.497 821.593 262.099L821.533 265.756L821.404 273.071L821.122 287.696C820.226 326.702 819.364 365.707 817.914 404.712C816.465 365.707 815.604 326.702 814.708 287.696L814.424 273.071L814.294 265.756L814.223 262.099C814.223 261.482 814.177 260.991 814.153 260.434C814.13 259.89 814.07 259.351 814 258.811C813.528 254.493 812.031 250.325 809.838 246.613C807.598 242.931 804.64 239.692 801.115 237.272C800.254 236.634 799.335 236.125 798.403 235.567L795.208 233.795L788.819 230.233L776.051 223.085L750.527 208.786L725.003 194.488L699.528 180.101L648.644 151.22L597.856 122.183L572.497 107.591L566.16 103.943L562.991 102.12C562.089 101.605 561.242 101.17 560.33 100.759C556.715 99.1456 552.751 98.3098 548.797 98.3048C544.844 98.3033 540.88 99.1456 537.263 100.757C536.347 101.173 535.509 101.603 534.615 102.114L531.46 103.957L525.127 107.613L499.765 122.196L448.96 151.227L398.068 180.103L372.587 194.485L347.061 208.783L321.535 223.083L308.772 230.231L302.381 233.788L299.18 235.56C298.24 236.093 297.333 236.636 296.457 237.255C289.403 242.094 284.551 250.159 283.569 258.807C283.442 259.903 283.373 260.936 283.359 262.099L283.293 265.756L283.162 273.071L282.881 287.696C281.988 326.702 281.133 365.707 279.69 404.712Z" fill="#FEFEFE"/>
</g>
</g>
<g filter="url(#filter4_d_5_24)">
<path d="M194 1009.64L208.718 1008.71C209.033 1011.1 209.687 1012.92 210.669 1014.16C212.269 1016.18 214.547 1017.19 217.514 1017.19C219.721 1017.19 221.426 1016.68 222.618 1015.64C223.821 1014.6 224.417 1013.4 224.417 1012.03C224.417 1010.73 223.856 1009.56 222.723 1008.54C221.59 1007.51 218.95 1006.55 214.803 1005.63C208.006 1004.11 203.169 1002.08 200.272 999.543C197.353 997.02 195.892 993.796 195.892 989.871C195.892 987.301 196.64 984.872 198.135 982.582C199.63 980.281 201.873 978.482 204.875 977.174C207.877 975.866 211.988 975.212 217.21 975.212C223.623 975.212 228.505 976.403 231.869 978.797C235.233 981.18 237.231 984.977 237.873 990.187L223.295 991.051C222.91 988.773 222.092 987.115 220.854 986.087C219.604 985.047 217.887 984.533 215.703 984.533C213.904 984.533 212.538 984.918 211.626 985.678C210.715 986.437 210.26 987.371 210.26 988.47C210.26 989.264 210.633 989.976 211.369 990.619C212.082 991.285 213.811 991.892 216.544 992.464C223.319 993.924 228.166 995.408 231.087 996.903C234.018 998.398 236.156 1000.24 237.488 1002.46C238.819 1004.67 239.485 1007.15 239.485 1009.89C239.485 1013.1 238.598 1016.07 236.822 1018.79C235.035 1021.5 232.558 1023.57 229.358 1024.97C226.169 1026.37 222.151 1027.07 217.292 1027.07C208.764 1027.07 202.854 1025.43 199.572 1022.15C196.29 1018.86 194.432 1014.69 194 1009.64ZM291.686 976.053H333.177V986.776H307.245V994.765H331.285V1005H307.245V1014.88H333.948V1026.23H291.686V976.053ZM420.14 1005.7L433.737 1009.8C432.826 1013.61 431.389 1016.8 429.415 1019.34C427.453 1021.9 425.023 1023.83 422.103 1025.12C419.194 1026.42 415.491 1027.07 410.994 1027.07C405.527 1027.07 401.077 1026.28 397.608 1024.7C394.15 1023.11 391.172 1020.32 388.661 1016.34C386.149 1012.36 384.887 1007.24 384.887 1001.03C384.887 992.733 387.095 986.355 391.51 981.893C395.938 977.443 402.187 975.212 410.27 975.212C416.589 975.212 421.565 976.485 425.186 979.043C428.796 981.601 431.494 985.526 433.246 990.829L419.58 993.854C419.101 992.336 418.599 991.226 418.073 990.525C417.197 989.346 416.134 988.434 414.884 987.804C413.623 987.161 412.221 986.846 410.667 986.846C407.139 986.846 404.441 988.259 402.572 991.074C401.159 993.165 400.446 996.459 400.446 1000.93C400.446 1006.49 401.287 1010.29 402.981 1012.36C404.675 1014.41 407.046 1015.44 410.107 1015.44C413.073 1015.44 415.316 1014.61 416.834 1012.94C418.353 1011.28 419.451 1008.86 420.14 1005.7ZM518.294 976.053H533.783V1005.94C533.783 1008.9 533.316 1011.7 532.393 1014.33C531.47 1016.97 530.021 1019.27 528.048 1021.25C526.073 1023.22 524.006 1024.6 521.845 1025.4C518.831 1026.51 515.21 1027.07 510.993 1027.07C508.552 1027.07 505.889 1026.9 503.004 1026.56C500.118 1026.22 497.701 1025.54 495.762 1024.53C493.823 1023.51 492.047 1022.08 490.447 1020.21C488.835 1018.34 487.737 1016.41 487.141 1014.42C486.183 1011.24 485.704 1008.41 485.704 1005.94V976.053H501.193V1006.66C501.193 1009.39 501.952 1011.53 503.459 1013.06C504.978 1014.6 507.08 1015.37 509.767 1015.37C512.418 1015.37 514.509 1014.61 516.028 1013.09C517.535 1011.59 518.294 1009.44 518.294 1006.66V976.053ZM588.635 1026.23V976.053H614.473C619.262 976.053 622.93 976.462 625.453 977.291C627.988 978.109 630.032 979.639 631.586 981.858C633.139 984.089 633.91 986.811 633.91 990.011C633.91 992.791 633.315 995.197 632.123 997.218C630.943 999.251 629.308 1000.89 627.217 1002.15C625.897 1002.94 624.075 1003.61 621.773 1004.13C623.619 1004.75 624.963 1005.36 625.803 1005.98C626.364 1006.39 627.194 1007.28 628.28 1008.62C629.355 1009.96 630.079 1011 630.441 1011.74L637.975 1026.23H620.454L612.172 1010.93C611.121 1008.95 610.186 1007.66 609.369 1007.07C608.247 1006.29 606.974 1005.91 605.561 1005.91H604.194V1026.23H588.635ZM604.194 996.448H610.747C611.448 996.448 612.826 996.214 614.858 995.758C615.887 995.559 616.727 995.034 617.37 994.181C618.024 993.328 618.351 992.359 618.351 991.261C618.351 989.638 617.837 988.388 616.809 987.523C615.781 986.647 613.854 986.215 611.016 986.215H604.194V996.448ZM687.98 976.053H703.539V1026.23H687.98V976.053ZM755.53 976.053H802.697V988.458H786.858V1026.23H771.369V988.458H755.53V976.053ZM849.011 976.053H866.229L876.38 992.943L886.483 976.053H903.608L884.124 1005.22V1026.23H868.565V1005.22L849.011 976.053Z" fill="url(#paint2_linear_5_24)"/>
</g>
<g filter="url(#filter5_d_5_24)">
<path d="M443.647 776.098V811.111H373.591V916.268H338.49V776.098H443.647ZM268.434 811.111V776.098H320.998V811.111H268.434ZM513.761 898.717V846.212L548.804 811.111L601.368 863.704V776.098H636.411V916.268H601.368L548.804 863.704L513.761 898.717ZM461.198 916.268V776.098H496.241V916.268H461.198ZM653.962 811.111V776.098H829.175V863.704H776.611L829.175 916.268H776.611L706.525 846.212V828.662H794.132V811.111H653.962ZM689.004 828.662V916.268H653.962V828.662H689.004Z" fill="#373435"/>
</g>
<defs>
<filter id="filter0_d_5_24" x="253.919" y="70" width="589.77" height="617.245" filterUnits="userSpaceOnUse" color-interpolation-filters="sRGB">
<feFlood flood-opacity="0" result="BackgroundImageFix"/>
<feColorMatrix in="SourceAlpha" type="matrix" values="0 0 0 0 0 0 0 0 0 0 0 0 0 0 0 0 0 0 127 0" result="hardAlpha"/>
<feOffset dy="4"/>
<feGaussianBlur stdDeviation="2"/>
<feComposite in2="hardAlpha" operator="out"/>
<feColorMatrix type="matrix" values="0 0 0 0 0 0 0 0 0 0 0 0 0 0 0 0 0 0 0.25 0"/>
<feBlend mode="normal" in2="BackgroundImageFix" result="effect1_dropShadow_5_24"/>
<feBlend mode="normal" in="SourceGraphic" in2="effect1_dropShadow_5_24" result="shape"/>
</filter>
<filter id="filter1_i_5_24" x="483.145" y="330.269" width="131.872" height="135.882" filterUnits="userSpaceOnUse" color-interpolation-filters="sRGB">
<feFlood flood-opacity="0" result="BackgroundImageFix"/>
<feBlend mode="normal" in="SourceGraphic" in2="BackgroundImageFix" result="shape"/>
<feColorMatrix in="SourceAlpha" type="matrix" values="0 0 0 0 0 0 0 0 0 0 0 0 0 0 0 0 0 0 127 0" result="hardAlpha"/>
<feOffset dy="5"/>
<feGaussianBlur stdDeviation="2"/>
<feComposite in2="hardAlpha" operator="arithmetic" k2="-1" k3="1"/>
<feColorMatrix type="matrix" values="0 0 0 0 0 0 0 0 0 0 0 0 0 0 0 0 0 0 0.5 0"/>
<feBlend mode="normal" in2="shape" result="effect1_innerShadow_5_24"/>
</filter>
<filter id="filter2_i_5_24" x="404.477" y="251.804" width="288.671" height="405.715" filterUnits="userSpaceOnUse" color-interpolation-filters="sRGB">
<feFlood flood-opacity="0" result="BackgroundImageFix"/>
<feBlend mode="normal" in="SourceGraphic" in2="BackgroundImageFix" result="shape"/>
<feColorMatrix in="SourceAlpha" type="matrix" values="0 0 0 0 0 0 0 0 0 0 0 0 0 0 0 0 0 0 127 0" result="hardAlpha"/>
<feOffset dy="5"/>
<feGaussianBlur stdDeviation="2"/>
<feComposite in2="hardAlpha" operator="arithmetic" k2="-1" k3="1"/>
<feColorMatrix type="matrix" values="0 0 0 0 0 0 0 0 0 0 0 0 0 0 0 0 0 0 0.5 0"/>
<feBlend mode="normal" in2="shape" result="effect1_innerShadow_5_24"/>
</filter>
<filter id="filter3_i_5_24" x="276.013" y="85.2449" width="545.588" height="323.467" filterUnits="userSpaceOnUse" color-interpolation-filters="sRGB">
<feFlood flood-opacity="0" result="BackgroundImageFix"/>
<feBlend mode="normal" in="SourceGraphic" in2="BackgroundImageFix" result="shape"/>
<feColorMatrix in="SourceAlpha" type="matrix" values="0 0 0 0 0 0 0 0 0 0 0 0 0 0 0 0 0 0 127 0" result="hardAlpha"/>
<feOffset dy="5"/>
<feGaussianBlur stdDeviation="2"/>
<feComposite in2="hardAlpha" operator="arithmetic" k2="-1" k3="1"/>
<feColorMatrix type="matrix" values="0 0 0 0 0 0 0 0 0 0 0 0 0 0 0 0 0 0 0.5 0"/>
<feBlend mode="normal" in2="shape" result="effect1_innerShadow_5_24"/>
</filter>
<filter id="filter4_d_5_24" x="190" y="975.212" width="717.608" height="59.8629" filterUnits="userSpaceOnUse" color-interpolation-filters="sRGB">
<feFlood flood-opacity="0" result="BackgroundImageFix"/>
<feColorMatrix in="SourceAlpha" type="matrix" values="0 0 0 0 0 0 0 0 0 0 0 0 0 0 0 0 0 0 127 0" result="hardAlpha"/>
<feOffset dy="4"/>
<feGaussianBlur stdDeviation="2"/>
<feComposite in2="hardAlpha" operator="out"/>
<feColorMatrix type="matrix" values="0 0 0 0 0 0 0 0 0 0 0 0 0 0 0 0 0 0 0.25 0"/>
<feBlend mode="normal" in2="BackgroundImageFix" result="effect1_dropShadow_5_24"/>
<feBlend mode="normal" in="SourceGraphic" in2="effect1_dropShadow_5_24" result="shape"/>
</filter>
<filter id="filter5_d_5_24" x="264.434" y="776.098" width="568.741" height="148.17" filterUnits="userSpaceOnUse" color-interpolation-filters="sRGB">
<feFlood flood-opacity="0" result="BackgroundImageFix"/>
<feColorMatrix in="SourceAlpha" type="matrix" values="0 0 0 0 0 0 0 0 0 0 0 0 0 0 0 0 0 0 127 0" result="hardAlpha"/>
<feOffset dy="4"/>
<feGaussianBlur stdDeviation="2"/>
<feComposite in2="hardAlpha" operator="out"/>
<feColorMatrix type="matrix" values="0 0 0 0 0 0 0 0 0 0 0 0 0 0 0 0 0 0 0.25 0"/>
<feBlend mode="normal" in2="BackgroundImageFix" result="effect1_dropShadow_5_24"/>
<feBlend mode="normal" in="SourceGraphic" in2="effect1_dropShadow_5_24" result="shape"/>
</filter>
<linearGradient id="paint0_linear_5_24" x1="548.804" y1="70" x2="548.804" y2="679.245" gradientUnits="userSpaceOnUse">
<stop stop-color="#054B7F"/>
<stop offset="0.57" stop-color="#103652"/>
<stop offset="1" stop-color="#19252F"/>
</linearGradient>
<linearGradient id="paint1_linear_5_24" x1="549.198" y1="295.772" x2="549.198" y2="496.413" gradientUnits="userSpaceOnUse">
<stop stop-color="#054B7F"/>
<stop offset="0.57" stop-color="#103652"/>
<stop offset="1" stop-color="#19252F"/>
</linearGradient>
<linearGradient id="paint2_linear_5_24" x1="548.804" y1="975.212" x2="548.804" y2="1027.07" gradientUnits="userSpaceOnUse">
<stop stop-color="#054B7F"/>
<stop offset="0.57" stop-color="#103652"/>
<stop offset="1" stop-color="#19252F"/>
</linearGradient>
</defs>
</svg>
